<?xml version="1.0" encoding="UTF-8"?>
<svg version="1.1" xmlns="http://www.w3.org/2000/svg" width="199" height="198">
<path d="M0 0 C2.625 0.375 2.625 0.375 5 1 C4.21885649 12.29471262 2.79664147 23.51367383 1.4375 34.75 C1.20097401 36.71872624 0.9646443 38.68747607 0.72851562 40.65625 C0.1546062 45.43777498 -0.42195815 50.2189729 -1 55 C3.54957577 54.75903984 8.09865208 54.51040019 12.64746094 54.25537109 C14.18706564 54.17005053 15.72677775 54.08664142 17.26660156 54.00537109 C26.79313982 53.50102495 36.19302056 52.70945472 45.64453125 51.39794922 C48.47825757 51.06187719 51.1527089 50.91932675 54 51 C53.97824707 50.4212915 53.95649414 49.84258301 53.93408203 49.24633789 C53.76497019 40.71585343 54.64369403 32.36140269 55.59912109 23.89916992 C55.87781721 21.41236204 56.14048526 18.92417778 56.40234375 16.43554688 C56.57716655 14.85145643 56.75291332 13.26746762 56.9296875 11.68359375 C57.04544632 10.56965492 57.04544632 10.56965492 57.1635437 9.43321228 C57.77070211 4.22929789 57.77070211 4.22929789 60 2 C62.125 2.375 62.125 2.375 64 3 C65.14902544 6.47233528 64.86343898 9.0998825 64.29296875 12.6875 C64.11934814 13.84233887 63.94572754 14.99717773 63.7668457 16.18701172 C63.57566162 17.44529785 63.38447754 18.70358398 63.1875 20 C59.6342393 44.59926369 59.01219487 69.44135448 58.32568359 94.25732422 C58.07569342 103.18962146 57.68874555 112.0902703 57 121 C79.87446487 120.5545899 79.87446487 120.5545899 100 111 C101.051875 110.2575 102.10375 109.515 103.1875 108.75 C110.19498971 101.89823229 112.43721877 93.49103725 114 84 C114 82.68 114 81.36 114 80 C113.02417969 80.56589844 112.04835938 81.13179688 111.04296875 81.71484375 C109.75789475 82.45587182 108.47273396 83.19674939 107.1875 83.9375 C106.54490234 84.31068359 105.90230469 84.68386719 105.24023438 85.06835938 C99.34366243 88.45965205 94.96543055 89.20681395 88.25 89.25 C87.46367187 89.270625 86.67734375 89.29125 85.8671875 89.3125 C80.48093689 89.34828904 76.76220858 88.56473701 72 86 C67.81649697 80.56144606 67.43223409 72.43324067 68.28515625 65.7734375 C69.12516585 62.45575251 70.14440684 59.93772393 73 58 C81.1044342 54.52667106 90.26781406 54.81859254 98.9375 54.8125 C99.88173828 54.80025391 100.82597656 54.78800781 101.79882812 54.77539062 C102.69923828 54.77345703 103.59964844 54.77152344 104.52734375 54.76953125 C105.33937256 54.76542236 106.15140137 54.76131348 106.98803711 54.75708008 C109 55 109 55 111 57 C111.1875 59.5625 111.1875 59.5625 111 62 C110 63 110 63 108.00976562 63.08178711 C107.15060547 63.0638208 106.29144531 63.04585449 105.40625 63.02734375 C103.983125 63.00897461 103.983125 63.00897461 102.53125 62.99023438 C100.5415843 62.95562035 98.55198792 62.9166992 96.5625 62.87304688 C87.56618167 62.65231867 87.56618167 62.65231867 79 65 C77.07066763 68.0181522 76.75745705 70.07998897 77.125 73.625 C77.18945312 74.40101562 77.25390625 75.17703125 77.3203125 75.9765625 C77.82608758 78.10546441 77.82608758 78.10546441 79.6171875 79.2421875 C87.59519538 81.77945558 96.22357815 80.88643058 103.625 77.25 C111.35614004 73.07536671 111.35614004 73.07536671 116 66 C116.09472505 63.16236685 115.9349917 60.39241183 115.77734375 57.55859375 C116 55 116 55 117.33984375 53.1484375 C119 52 119 52 121.625 52.1875 C124 53 124 53 125 55 C125.57958364 62.22790575 124.54494937 69.21997916 123.25 76.3125 C123.06663086 77.3221582 122.88326172 78.33181641 122.69433594 79.37207031 C119.51101788 96.35886702 114.88966242 108.78973631 100.125 119.125 C84.28115236 128.63130859 60.66645622 129.2746769 43.15625 125.03515625 C35.43794936 122.5037829 27.64858909 116.71462869 23 110 C23.1015625 107.8203125 23.1015625 107.8203125 24 106 C24.99 105.67 25.98 105.34 27 105 C29.13268166 107.05651446 30.97650518 108.96475777 32.625 111.4375 C37.4680201 116.6628638 44.36197144 118.82180757 51 121 C51.02283554 120.2277005 51.04567108 119.455401 51.06919861 118.65969849 C51.28496729 111.39039592 51.50520328 104.12124909 51.73049068 96.85223579 C51.84616154 93.11493895 51.96008884 89.37760572 52.07006836 85.64013672 C52.17621831 82.0349705 52.28689999 78.42996961 52.40075874 74.82503891 C52.44344931 73.44794523 52.48449168 72.07079947 52.5238781 70.69360733 C52.57921498 68.76842787 52.64089442 66.84343386 52.70288086 64.91845703 C52.73619003 63.82147491 52.76949921 62.7244928 52.80381775 61.5942688 C53 59 53 59 54 57 C52.81410278 57.17390259 52.81410278 57.17390259 51.60424805 57.35131836 C47.96577074 57.88309786 44.32664723 58.41032529 40.6875 58.9375 C38.82254883 59.21110352 38.82254883 59.21110352 36.91992188 59.49023438 C24.16545603 61.33143023 11.86611305 62.1452886 -1 62 C-1.04789169 62.6072139 -1.09578339 63.2144278 -1.14512634 63.84004211 C-1.64358006 70.1504817 -2.14728048 76.46048678 -2.65405273 82.77026367 C-2.84257916 85.12627567 -3.02976 87.48239574 -3.21557617 89.83862305 C-3.48263929 93.22213474 -3.75451276 96.60523039 -4.02734375 99.98828125 C-4.10967758 101.04461258 -4.19201141 102.10094391 -4.27684021 103.18928528 C-4.35684769 104.17007553 -4.43685516 105.15086578 -4.51928711 106.16137695 C-4.58812607 107.02519485 -4.65696503 107.88901276 -4.72789001 108.77900696 C-5 111 -5 111 -6 114 C-7.65 114 -9.3 114 -11 114 C-11.18902123 105.3570195 -10.46800265 96.79935679 -9.79296875 88.19140625 C-9.665473 86.54020917 -9.53814174 84.88899939 -9.41096497 83.23777771 C-9.14343108 79.77543742 -8.87325583 76.31331546 -8.60131836 72.85131836 C-8.32701275 69.35615732 -8.05646197 65.86074232 -7.78979492 62.36499023 C-6.52410118 45.77657873 -5.25365859 29.19007588 -3.42578125 12.65234375 C-3.31179489 11.58109756 -3.19780853 10.50985138 -3.08036804 9.40614319 C-2.96788223 8.44445724 -2.85539642 7.4827713 -2.73950195 6.49194336 C-2.64457962 5.66496445 -2.54965729 4.83798553 -2.45185852 3.98594666 C-2 2 -2 2 0 0 Z " fill="#000000" transform="translate(44,37)"/>
</svg>
